<svg version="1.1" viewBox="0.0 0.0 716.0 443.0" fill="none" stroke="none" stroke-linecap="square" stroke-miterlimit="10" width="716" height="443" xmlns:xlink="http://www.w3.org/1999/xlink" xmlns="http://www.w3.org/2000/svg"><path fill="#ffffff" d="M0 0L716.0 0L716.0 443.0L0 443.0L0 0Z" fill-rule="nonzero"/><path stroke="#cccccc" stroke-width="1.0" stroke-linecap="butt" d="M81.5 368.5L693.5 368.5" fill-rule="nonzero"/><path stroke="#cccccc" stroke-width="1.0" stroke-linecap="butt" d="M81.5 325.5L693.5 325.5" fill-rule="nonzero"/><path stroke="#cccccc" stroke-width="1.0" stroke-linecap="butt" d="M81.5 226.5L693.5 226.5" fill-rule="nonzero"/><path stroke="#cccccc" stroke-width="1.0" stroke-linecap="butt" d="M81.5 183.5L693.5 183.5" fill-rule="nonzero"/><path stroke="#cccccc" stroke-width="1.0" stroke-linecap="butt" d="M81.5 83.5L693.5 83.5" fill-rule="nonzero"/><path stroke="#000000" stroke-width="1.0" stroke-linecap="butt" d="M81.5 368.5L81.5 67.5" fill-rule="nonzero"/><clipPath id="id_0"><path d="M81.15 67.916664L693.85 67.916664L693.85 368.85L81.15 368.85L81.15 67.916664Z" clip-rule="nonzero"/></clipPath><path stroke="#000000" stroke-width="2.0" stroke-linecap="butt" stroke-opacity="0.5019608" clip-path="url(#id_0)" d="M0 29.510689L693.85 337.68872" fill-rule="nonzero"/><path fill="#4285f4" clip-path="url(#id_0)" d="M129.41429 84.48048C129.41429 86.96575 127.39957 88.98048 124.91428 88.98048C122.429 88.98048 120.41428 86.96575 120.41428 84.48048C120.41428 81.99519 122.429 79.98048 124.91428 79.98048C127.39957 79.98048 129.41429 81.99519 129.41429 84.48048Z" fill-rule="nonzero"/><path fill="#4285f4" clip-path="url(#id_0)" d="M216.94286 126.21793C216.94286 128.70322 214.92813 130.71794 212.44286 130.71794C209.95758 130.71794 207.94286 128.70322 207.94286 126.21793C207.94286 123.73265 209.95758 121.71793 212.44286 121.71793C214.92813 121.71793 216.94286 123.73265 216.94286 126.21793Z" fill-rule="nonzero"/><path fill="#4285f4" clip-path="url(#id_0)" d="M304.47144 162.17952C304.47144 164.66481 302.4567 166.67952 299.97144 166.67952C297.48615 166.67952 295.47144 164.66481 295.47144 162.17952C295.47144 159.69424 297.48615 157.67952 299.97144 157.67952C302.4567 157.67952 304.47144 159.69424 304.47144 162.17952Z" fill-rule="nonzero"/><path fill="#4285f4" clip-path="url(#id_0)" d="M392.0 196.88809C392.0 199.37338 389.9853 201.38809 387.5 201.38809C385.0147 201.38809 383.0 199.37338 383.0 196.88809C383.0 194.40282 385.0147 192.38809 387.5 192.38809C389.9853 192.38809 392.0 194.40282 392.0 196.88809Z" fill-rule="nonzero"/><path fill="#4285f4" clip-path="url(#id_0)" d="M479.52856 239.87857C479.52856 242.36385 477.51385 244.37857 475.02856 244.37857C472.5433 244.37857 470.52856 242.36385 470.52856 239.87857C470.52856 237.3933 472.5433 235.37857 475.02856 235.37857C477.51385 235.37857 479.52856 237.3933 479.52856 239.87857Z" fill-rule="nonzero"/><path fill="#4285f4" clip-path="url(#id_0)" d="M567.0571 282.86905C567.0571 285.35434 565.0424 287.36905 562.5571 287.36905C560.07184 287.36905 558.0571 285.35434 558.0571 282.86905C558.0571 280.38376 560.07184 278.36905 562.5571 278.36905C565.0424 278.36905 567.0571 280.38376 567.0571 282.86905Z" fill-rule="nonzero"/><path fill="#4285f4" clip-path="url(#id_0)" d="M654.5857 325.85953C654.5857 328.34482 652.571 330.35953 650.0857 330.35953C647.6004 330.35953 645.5857 328.34482 645.5857 325.85953C645.5857 323.37424 647.6004 321.35953 650.0857 321.35953C652.571 321.35953 654.5857 323.37424 654.5857 325.85953Z" fill-rule="nonzero"/><path fill="#000000" d="M340.92188 417.85L340.92188 409.25626L342.07812 409.25626L346.59375 416.00626L346.59375 409.25626L347.6875 409.25626L347.6875 417.85L346.51562 417.85L342.0 411.1L342.0 417.85L340.92188 417.85ZM353.875 417.85L353.875 416.92813Q353.14062 417.99063 351.89062 417.99063Q351.34375 417.99063 350.85938 417.7875Q350.39062 417.56876 350.15625 417.25626Q349.92188 416.92813 349.82812 416.45938Q349.76562 416.1625 349.76562 415.475L349.76562 411.63126L350.82812 411.63126L350.82812 415.08438Q350.82812 415.89688 350.89062 416.19376Q350.98438 416.6 351.29688 416.85Q351.625 417.08438 352.10938 417.08438Q352.57812 417.08438 352.98438 416.85Q353.40625 416.6 353.57812 416.17813Q353.76562 415.75626 353.76562 414.95938L353.76562 411.63126L354.8125 411.63126L354.8125 417.85L353.875 417.85ZM356.79688 417.85L356.79688 411.63126L357.73438 411.63126L357.73438 412.50626Q358.03125 412.0375 358.51562 411.77188Q359.0 411.49063 359.625 411.49063Q360.3125 411.49063 360.75 411.77188Q361.20312 412.05313 361.375 412.56876Q362.125 411.49063 363.29688 411.49063Q364.23438 411.49063 364.71875 412.00626Q365.21875 412.50626 365.21875 413.58438L365.21875 417.85L364.17188 417.85L364.17188 413.92813Q364.17188 413.30313 364.0625 413.02188Q363.96875 412.74063 363.70312 412.56876Q363.4375 412.39688 363.0625 412.39688Q362.40625 412.39688 361.96875 412.83438Q361.54688 413.27188 361.54688 414.24063L361.54688 417.85L360.48438 417.85L360.48438 413.80313Q360.48438 413.1 360.21875 412.75626Q359.96875 412.39688 359.39062 412.39688Q358.9375 412.39688 358.5625 412.63126Q358.1875 412.86563 358.01562 413.31876Q357.84375 413.77188 357.84375 414.61563L357.84375 417.85L356.79688 417.85ZM368.76562 417.85L367.78125 417.85L367.78125 409.25626L368.84375 409.25626L368.84375 412.31876Q369.51562 411.49063 370.54688 411.49063Q371.125 411.49063 371.625 411.725Q372.14062 411.94376 372.46875 412.36563Q372.8125 412.7875 373.0 413.38126Q373.1875 413.975 373.1875 414.64688Q373.1875 416.24063 372.39062 417.11563Q371.59375 417.99063 370.5 417.99063Q369.39062 417.99063 368.76562 417.06876L368.76562 417.85ZM368.75 414.69376Q368.75 415.80313 369.0625 416.30313Q369.5625 417.11563 370.40625 417.11563Q371.09375 417.11563 371.59375 416.52188Q372.10938 415.92813 372.10938 414.725Q372.10938 413.50626 371.625 412.92813Q371.14062 412.35 370.45312 412.35Q369.76562 412.35 369.25 412.95938Q368.75 413.55313 368.75 414.69376ZM379.04688 415.85L380.14062 415.975Q379.89062 416.92813 379.1875 417.45938Q378.48438 417.99063 377.40625 417.99063Q376.04688 417.99063 375.23438 417.14688Q374.4375 416.30313 374.4375 414.7875Q374.4375 413.225 375.25 412.36563Q376.0625 411.49063 377.34375 411.49063Q378.59375 411.49063 379.375 412.33438Q380.17188 413.17813 380.17188 414.725Q380.17188 414.81876 380.17188 415.00626L375.53125 415.00626Q375.59375 416.0375 376.10938 416.58438Q376.625 417.11563 377.40625 417.11563Q377.98438 417.11563 378.39062 416.81876Q378.8125 416.50626 379.04688 415.85ZM375.59375 414.14688L379.0625 414.14688Q379.0 413.35 378.67188 412.95938Q378.15625 412.35 377.35938 412.35Q376.625 412.35 376.125 412.83438Q375.64062 413.31876 375.59375 414.14688ZM381.78125 417.85L381.78125 411.63126L382.73438 411.63126L382.73438 412.56876Q383.09375 411.9125 383.39062 411.70938Q383.70312 411.49063 384.07812 411.49063Q384.60938 411.49063 385.15625 411.81876L384.79688 412.80313Q384.40625 412.56876 384.03125 412.56876Q383.67188 412.56876 383.39062 412.7875Q383.125 412.99063 383.01562 413.36563Q382.82812 413.92813 382.82812 414.58438L382.82812 417.85L381.78125 417.85ZM388.40625 414.74063Q388.40625 413.00626 389.35938 412.17813Q390.15625 411.49063 391.3125 411.49063Q392.59375 411.49063 393.40625 412.33438Q394.23438 413.1625 394.23438 414.64688Q394.23438 415.85 393.875 416.5375Q393.51562 417.225 392.8125 417.61563Q392.125 417.99063 391.3125 417.99063Q390.01562 417.99063 389.20312 417.1625Q388.40625 416.31876 388.40625 414.74063ZM389.48438 414.74063Q389.48438 415.92813 390.0 416.52188Q390.53125 417.11563 391.3125 417.11563Q392.10938 417.11563 392.625 416.52188Q393.14062 415.92813 393.14062 414.70938Q393.14062 413.55313 392.60938 412.95938Q392.09375 412.36563 391.3125 412.36563Q390.53125 412.36563 390.0 412.95938Q389.48438 413.5375 389.48438 414.74063ZM396.04688 417.85L396.04688 412.44376L395.10938 412.44376L395.10938 411.63126L396.04688 411.63126L396.04688 410.95938Q396.04688 410.33438 396.15625 410.0375Q396.3125 409.61563 396.6875 409.36563Q397.07812 409.11563 397.76562 409.11563Q398.21875 409.11563 398.75 409.225L398.59375 410.13126Q398.26562 410.08438 397.96875 410.08438Q397.48438 410.08438 397.28125 410.2875Q397.09375 410.49063 397.09375 411.05313L397.09375 411.63126L398.3125 411.63126L398.3125 412.44376L397.09375 412.44376L397.09375 417.85L396.04688 417.85ZM404.10938 417.85L404.10938 410.27188L401.28125 410.27188L401.28125 409.25626L408.09375 409.25626L408.09375 410.27188L405.25 410.27188L405.25 417.85L404.10938 417.85ZM412.85938 417.08438Q412.26562 417.58438 411.71875 417.7875Q411.1875 417.99063 410.5625 417.99063Q409.53125 417.99063 408.98438 417.49063Q408.4375 416.99063 408.4375 416.20938Q408.4375 415.75626 408.64062 415.38126Q408.84375 414.99063 409.1875 414.77188Q409.53125 414.5375 409.95312 414.42813Q410.25 414.33438 410.89062 414.25626Q412.15625 414.11563 412.76562 413.89688Q412.76562 413.67813 412.76562 413.63126Q412.76562 412.975 412.46875 412.70938Q412.0625 412.36563 411.26562 412.36563Q410.53125 412.36563 410.17188 412.63126Q409.8125 412.88126 409.64062 413.5375L408.60938 413.39688Q408.75 412.74063 409.07812 412.33438Q409.40625 411.92813 410.01562 411.70938Q410.625 411.49063 411.42188 411.49063Q412.21875 411.49063 412.71875 411.67813Q413.21875 411.86563 413.45312 412.14688Q413.6875 412.42813 413.78125 412.86563Q413.82812 413.13126 413.82812 413.83438L413.82812 415.24063Q413.82812 416.70938 413.89062 417.1Q413.96875 417.49063 414.17188 417.85L413.0625 417.85Q412.90625 417.52188 412.85938 417.08438ZM412.76562 414.725Q412.1875 414.95938 411.04688 415.13126Q410.39062 415.225 410.125 415.35Q409.85938 415.45938 409.70312 415.67813Q409.5625 415.89688 409.5625 416.17813Q409.5625 416.6 409.875 416.88126Q410.20312 417.1625 410.8125 417.1625Q411.42188 417.1625 411.89062 416.89688Q412.375 416.63126 412.59375 416.1625Q412.76562 415.80313 412.76562 415.11563L412.76562 414.725ZM415.375 415.99063L416.40625 415.83438Q416.5 416.45938 416.89062 416.7875Q417.29688 417.11563 418.03125 417.11563Q418.75 417.11563 419.09375 416.83438Q419.45312 416.5375 419.45312 416.13126Q419.45312 415.77188 419.14062 415.56876Q418.92188 415.42813 418.0625 415.20938Q416.90625 414.9125 416.45312 414.70938Q416.01562 414.49063 415.78125 414.11563Q415.54688 413.74063 415.54688 413.27188Q415.54688 412.86563 415.73438 412.50626Q415.92188 412.14688 416.25 411.9125Q416.5 411.74063 416.92188 411.61563Q417.34375 411.49063 417.84375 411.49063Q418.5625 411.49063 419.10938 411.70938Q419.67188 411.9125 419.9375 412.27188Q420.20312 412.63126 420.29688 413.225L419.26562 413.36563Q419.20312 412.89688 418.85938 412.63126Q418.53125 412.35 417.90625 412.35Q417.1875 412.35 416.875 412.6Q416.5625 412.83438 416.5625 413.1625Q416.5625 413.36563 416.6875 413.52188Q416.82812 413.69376 417.09375 413.80313Q417.25 413.86563 418.03125 414.06876Q419.15625 414.38126 419.59375 414.56876Q420.03125 414.75626 420.28125 415.11563Q420.53125 415.475 420.53125 416.02188Q420.53125 416.55313 420.21875 417.02188Q419.92188 417.475 419.34375 417.74063Q418.76562 417.99063 418.03125 417.99063Q416.8125 417.99063 416.17188 417.49063Q415.54688 416.975 415.375 415.99063ZM422.79688 417.85L422.79688 409.25626L423.85938 409.25626L423.85938 414.1625L426.34375 411.63126L427.71875 411.63126L425.32812 413.92813L427.95312 417.85L426.65625 417.85L424.59375 414.6625L423.85938 415.38126L423.85938 417.85L422.79688 417.85ZM428.375 415.99063L429.40625 415.83438Q429.5 416.45938 429.89062 416.7875Q430.29688 417.11563 431.03125 417.11563Q431.75 417.11563 432.09375 416.83438Q432.45312 416.5375 432.45312 416.13126Q432.45312 415.77188 432.14062 415.56876Q431.92188 415.42813 431.0625 415.20938Q429.90625 414.9125 429.45312 414.70938Q429.01562 414.49063 428.78125 414.11563Q428.54688 413.74063 428.54688 413.27188Q428.54688 412.86563 428.73438 412.50626Q428.92188 412.14688 429.25 411.9125Q429.5 411.74063 429.92188 411.61563Q430.34375 411.49063 430.84375 411.49063Q431.5625 411.49063 432.10938 411.70938Q432.67188 411.9125 432.9375 412.27188Q433.20312 412.63126 433.29688 413.225L432.26562 413.36563Q432.20312 412.89688 431.85938 412.63126Q431.53125 412.35 430.90625 412.35Q430.1875 412.35 429.875 412.6Q429.5625 412.83438 429.5625 413.1625Q429.5625 413.36563 429.6875 413.52188Q429.82812 413.69376 430.09375 413.80313Q430.25 413.86563 431.03125 414.06876Q432.15625 414.38126 432.59375 414.56876Q433.03125 414.75626 433.28125 415.11563Q433.53125 415.475 433.53125 416.02188Q433.53125 416.55313 433.21875 417.02188Q432.92188 417.475 432.34375 417.74063Q431.76562 417.99063 431.03125 417.99063Q429.8125 417.99063 429.17188 417.49063Q428.54688 416.975 428.375 415.99063Z" fill-rule="nonzero"/><path fill="#000000" d="M33.150005 244.77396L25.57188 244.77396L25.57188 247.60208L24.556255 247.60208L24.556255 240.78958L25.57188 240.78958L25.57188 243.63333L33.150005 243.63333L33.150005 244.77396ZM25.775005 240.08646L24.556255 240.08646L24.556255 239.02396L25.775005 239.02396L25.775005 240.08646ZM33.150005 240.08646L26.931255 240.08646L26.931255 239.02396L33.150005 239.02396L33.150005 240.08646ZM33.150005 237.08646L26.931255 237.08646L26.931255 236.14896L27.806255 236.14896Q27.337505 235.85208 27.07188 235.3677Q26.79063 234.88333 26.79063 234.25833Q26.79063 233.57083 27.07188 233.13333Q27.35313 232.6802 27.868755 232.50833Q26.79063 231.75833 26.79063 230.58646Q26.79063 229.64896 27.306255 229.16458Q27.806255 228.66458 28.88438 228.66458L33.150005 228.66458L33.150005 229.71146L29.22813 229.71146Q28.60313 229.71146 28.32188 229.82083Q28.04063 229.91458 27.868755 230.1802Q27.69688 230.44583 27.69688 230.82083Q27.69688 231.47708 28.13438 231.91458Q28.57188 232.33646 29.54063 232.33646L33.150005 232.33646L33.150005 233.39896L29.10313 233.39896Q28.400005 233.39896 28.056255 233.66458Q27.69688 233.91458 27.69688 234.4927Q27.69688 234.94583 27.931255 235.32083Q28.16563 235.69583 28.618755 235.8677Q29.07188 236.03958 29.91563 236.03958L33.150005 236.03958L33.150005 237.08646ZM31.150005 221.83646L31.275005 220.7427Q32.22813 220.9927 32.75938 221.69583Q33.29063 222.39896 33.29063 223.47708Q33.29063 224.83646 32.44688 225.64896Q31.60313 226.44583 30.087505 226.44583Q28.525005 226.44583 27.66563 225.63333Q26.79063 224.82083 26.79063 223.53958Q26.79063 222.28958 27.63438 221.50833Q28.47813 220.71146 30.025005 220.71146Q30.118755 220.71146 30.306255 220.71146L30.306255 225.35208Q31.337505 225.28958 31.88438 224.77396Q32.41563 224.25833 32.41563 223.47708Q32.41563 222.89896 32.118755 222.4927Q31.806255 222.07083 31.150005 221.83646ZM29.44688 225.28958L29.44688 221.82083Q28.650005 221.88333 28.25938 222.21146Q27.650005 222.72708 27.650005 223.52396Q27.650005 224.25833 28.13438 224.75833Q28.618755 225.2427 29.44688 225.28958ZM35.681255 214.07083Q34.57188 214.94583 33.10313 215.5552Q31.618755 216.14896 30.04063 216.14896Q28.650005 216.14896 27.368755 215.71146Q25.88438 215.1802 24.41563 214.07083L24.41563 213.32083Q25.63438 214.02396 26.150005 214.25833Q26.962505 214.6177 27.837505 214.82083Q28.931255 215.07083 30.04063 215.07083Q32.868755 215.07083 35.681255 213.32083L35.681255 214.07083ZM31.29063 212.50833L31.13438 211.47708Q31.75938 211.38333 32.087505 210.9927Q32.41563 210.58646 32.41563 209.85208Q32.41563 209.13333 32.13438 208.78958Q31.837505 208.4302 31.431255 208.4302Q31.07188 208.4302 30.868755 208.7427Q30.72813 208.96146 30.50938 209.82083Q30.212505 210.97708 30.00938 211.4302Q29.79063 211.8677 29.41563 212.10208Q29.04063 212.33646 28.57188 212.33646Q28.16563 212.33646 27.806255 212.14896Q27.44688 211.96146 27.212505 211.63333Q27.04063 211.38333 26.91563 210.96146Q26.79063 210.53958 26.79063 210.03958Q26.79063 209.32083 27.00938 208.77396Q27.212505 208.21146 27.57188 207.94583Q27.931255 207.6802 28.525005 207.58646L28.66563 208.6177Q28.19688 208.6802 27.931255 209.02396Q27.650005 209.35208 27.650005 209.97708Q27.650005 210.69583 27.900005 211.00833Q28.13438 211.32083 28.462505 211.32083Q28.66563 211.32083 28.82188 211.19583Q28.993755 211.0552 29.10313 210.78958Q29.16563 210.63333 29.368755 209.85208Q29.681255 208.72708 29.868755 208.28958Q30.056255 207.85208 30.41563 207.60208Q30.775005 207.35208 31.32188 207.35208Q31.85313 207.35208 32.32188 207.66458Q32.775005 207.96146 33.04063 208.53958Q33.29063 209.1177 33.29063 209.85208Q33.29063 211.07083 32.79063 211.71146Q32.275005 212.33646 31.29063 212.50833ZM35.681255 204.39896L35.681255 205.14896Q32.868755 203.39896 30.04063 203.39896Q28.94688 203.39896 27.85313 203.64896Q26.97813 203.85208 26.16563 204.21146Q25.650005 204.44583 24.41563 205.14896L24.41563 204.39896Q25.88438 203.3052 27.368755 202.77396Q28.650005 202.32083 30.04063 202.32083Q31.618755 202.32083 33.10313 202.9302Q34.57188 203.53958 35.681255 204.39896Z" fill-rule="nonzero"/><path fill="#000000" d="M58.65 368.61563Q58.65 367.08438 58.9625 366.1625Q59.275 365.225 59.884377 364.725Q60.509377 364.225 61.446877 364.225Q62.134377 364.225 62.65 364.50626Q63.18125 364.7875 63.525 365.31876Q63.86875 365.83438 64.05625 366.58438Q64.24375 367.33438 64.24375 368.61563Q64.24375 370.13126 63.93125 371.05313Q63.634377 371.975 63.009377 372.49063Q62.4 372.99063 61.446877 372.99063Q60.2125 372.99063 59.49375 372.1Q58.65 371.0375 58.65 368.61563ZM59.728127 368.61563Q59.728127 370.725 60.228127 371.42813Q60.728127 372.13126 61.446877 372.13126Q62.18125 372.13126 62.665627 371.42813Q63.165627 370.725 63.165627 368.61563Q63.165627 366.49063 62.665627 365.80313Q62.18125 365.1 61.43125 365.1Q60.7125 365.1 60.275 365.70938Q59.728127 366.49063 59.728127 368.61563ZM66.24375 372.85L66.24375 371.64688L67.44688 371.64688L67.44688 372.85L66.24375 372.85ZM68.65 370.6L69.75938 370.50626Q69.88438 371.31876 70.32188 371.725Q70.775 372.13126 71.41563 372.13126Q72.16563 372.13126 72.69688 371.55313Q73.22813 370.975 73.22813 370.0375Q73.22813 369.13126 72.7125 368.61563Q72.2125 368.08438 71.38438 368.08438Q70.88438 368.08438 70.4625 368.31876Q70.05625 368.55313 69.82188 368.9125L68.8375 368.7875L69.66563 364.38126L73.94688 364.38126L73.94688 365.38126L70.50938 365.38126L70.05625 367.69376Q70.82188 367.14688 71.66563 367.14688Q72.79063 367.14688 73.55625 367.92813Q74.3375 368.70938 74.3375 369.94376Q74.3375 371.1 73.66563 371.95938Q72.8375 372.99063 71.41563 372.99063Q70.24375 372.99063 69.49375 372.33438Q68.75938 371.67813 68.65 370.6Z" fill-rule="nonzero"/><path fill="#000000" d="M72.61875 329.85953L71.57188 329.85953L71.57188 323.14078Q71.18125 323.50015 70.55625 323.87515Q69.94688 324.23453 69.4625 324.4064L69.4625 323.39078Q70.3375 322.9689 70.99375 322.39078Q71.66563 321.79703 71.94688 321.23453L72.61875 321.23453L72.61875 329.85953Z" fill-rule="nonzero"/><path fill="#000000" d="M68.65 227.78873L69.75938 227.69498Q69.88438 228.50748 70.32188 228.91373Q70.775 229.31998 71.41563 229.31998Q72.16563 229.31998 72.69688 228.74185Q73.22813 228.16373 73.22813 227.22623Q73.22813 226.31998 72.7125 225.80435Q72.2125 225.2731 71.38438 225.2731Q70.88438 225.2731 70.4625 225.50748Q70.05625 225.74185 69.82188 226.10123L68.8375 225.97623L69.66563 221.56998L73.94688 221.56998L73.94688 222.56998L70.50938 222.56998L70.05625 224.88248Q70.82188 224.3356 71.66563 224.3356Q72.79063 224.3356 73.55625 225.11685Q74.3375 225.8981 74.3375 227.13248Q74.3375 228.28873 73.66563 229.1481Q72.8375 230.17935 71.41563 230.17935Q70.24375 230.17935 69.49375 229.5231Q68.75938 228.86685 68.65 227.78873Z" fill-rule="nonzero"/><path fill="#000000" d="M65.61875 187.04825L64.57188 187.04825L64.57188 180.3295Q64.18125 180.68887 63.55625 181.06387Q62.946877 181.42325 62.4625 181.59512L62.4625 180.5795Q63.3375 180.15762 63.99375 179.5795Q64.66563 178.98575 64.94688 178.42325L65.61875 178.42325L65.61875 187.04825ZM68.65 182.81387Q68.65 181.28262 68.9625 180.36075Q69.275 179.42325 69.88438 178.92325Q70.50938 178.42325 71.44688 178.42325Q72.13438 178.42325 72.65 178.7045Q73.18125 178.98575 73.525 179.517Q73.86875 180.03262 74.05625 180.78262Q74.24375 181.53262 74.24375 182.81387Q74.24375 184.3295 73.93125 185.25137Q73.63438 186.17325 73.00938 186.68887Q72.4 187.18887 71.44688 187.18887Q70.2125 187.18887 69.49375 186.29825Q68.65 185.23575 68.65 182.81387ZM69.72813 182.81387Q69.72813 184.92325 70.22813 185.62637Q70.72813 186.3295 71.44688 186.3295Q72.18125 186.3295 72.66563 185.62637Q73.16563 184.92325 73.16563 182.81387Q73.16563 180.68887 72.66563 180.00137Q72.18125 179.29825 71.43125 179.29825Q70.7125 179.29825 70.275 179.90762Q69.72813 180.68887 69.72813 182.81387Z" fill-rule="nonzero"/><path fill="#000000" d="M61.65 84.977455L62.759377 84.883705Q62.884377 85.696205 63.321877 86.102455Q63.775 86.508705 64.41563 86.508705Q65.16563 86.508705 65.69688 85.93058Q66.22813 85.352455 66.22813 84.414955Q66.22813 83.508705 65.7125 82.99308Q65.2125 82.46183 64.38438 82.46183Q63.884377 82.46183 63.4625 82.696205Q63.05625 82.93058 62.821877 83.289955L61.8375 83.164955L62.665627 78.758705L66.94688 78.758705L66.94688 79.758705L63.509377 79.758705L63.05625 82.071205Q63.821877 81.52433 64.66563 81.52433Q65.79063 81.52433 66.55625 82.30558Q67.3375 83.08683 67.3375 84.321205Q67.3375 85.477455 66.66563 86.33683Q65.8375 87.36808 64.41563 87.36808Q63.24375 87.36808 62.49375 86.71183Q61.759377 86.05558 61.65 84.977455ZM68.65 82.99308Q68.65 81.46183 68.9625 80.539955Q69.275 79.602455 69.88438 79.102455Q70.50938 78.602455 71.44688 78.602455Q72.13438 78.602455 72.65 78.883705Q73.18125 79.164955 73.525 79.696205Q73.86875 80.21183 74.05625 80.96183Q74.24375 81.71183 74.24375 82.99308Q74.24375 84.508705 73.93125 85.43058Q73.63438 86.352455 73.00938 86.86808Q72.4 87.36808 71.44688 87.36808Q70.2125 87.36808 69.49375 86.477455Q68.65 85.414955 68.65 82.99308ZM69.72813 82.99308Q69.72813 85.102455 70.22813 85.80558Q70.72813 86.508705 71.44688 86.508705Q72.18125 86.508705 72.66563 85.80558Q73.16563 85.102455 73.16563 82.99308Q73.16563 80.86808 72.66563 80.18058Q72.18125 79.477455 71.43125 79.477455Q70.7125 79.477455 70.275 80.08683Q69.72813 80.86808 69.72813 82.99308Z" fill-rule="nonzero"/><path fill="#000000" d="M125.88303 385.85L124.83616 385.85L124.83616 379.13126Q124.44553 379.49063 123.82053 379.86563Q123.21116 380.225 122.72678 380.39688L122.72678 379.38126Q123.60178 378.95938 124.25803 378.38126Q124.92991 377.7875 125.21116 377.225L125.88303 377.225L125.88303 385.85Z" fill-rule="nonzero"/><path fill="#000000" d="M214.98973 384.83438L214.98973 385.85L209.30223 385.85Q209.30223 385.475 209.42723 385.11563Q209.64598 384.5375 210.11473 383.975Q210.5991 383.4125 211.50536 382.67813Q212.9116 381.52188 213.39598 380.85Q213.89598 380.17813 213.89598 379.58438Q213.89598 378.95938 213.44286 378.5375Q212.98973 378.1 212.27098 378.1Q211.50536 378.1 211.05223 378.55313Q210.5991 379.00626 210.58348 379.81876L209.50536 379.70938Q209.61473 378.49063 210.33348 377.86563Q211.06786 377.225 212.30223 377.225Q213.5366 377.225 214.25536 377.9125Q214.9741 378.6 214.9741 379.61563Q214.9741 380.13126 214.75536 380.63126Q214.55223 381.11563 214.05223 381.67813Q213.56786 382.225 212.44286 383.17813Q211.48973 383.975 211.20848 384.27188Q210.94286 384.55313 210.77098 384.83438L214.98973 384.83438Z" fill-rule="nonzero"/><path fill="#000000" d="M300.34644 385.85L300.34644 383.7875L296.6277 383.7875L296.6277 382.81876L300.54956 377.25626L301.40894 377.25626L301.40894 382.81876L302.5652 382.81876L302.5652 383.7875L301.40894 383.7875L301.40894 385.85L300.34644 385.85ZM300.34644 382.81876L300.34644 378.95938L297.65894 382.81876L300.34644 382.81876Z" fill-rule="nonzero"/><path fill="#000000" d="M386.125 381.19376Q385.46875 380.94376 385.14062 380.50626Q384.82812 380.05313 384.82812 379.44376Q384.82812 378.50626 385.5 377.86563Q386.1875 377.225 387.29688 377.225Q388.42188 377.225 389.10938 377.88126Q389.79688 378.5375 389.79688 379.475Q389.79688 380.06876 389.48438 380.50626Q389.17188 380.94376 388.53125 381.19376Q389.32812 381.44376 389.73438 382.02188Q390.14062 382.6 390.14062 383.39688Q390.14062 384.49063 389.35938 385.24063Q388.59375 385.99063 387.3125 385.99063Q386.04688 385.99063 385.26562 385.24063Q384.48438 384.49063 384.48438 383.36563Q384.48438 382.52188 384.90625 381.95938Q385.34375 381.39688 386.125 381.19376ZM385.90625 379.39688Q385.90625 380.00626 386.29688 380.39688Q386.70312 380.7875 387.32812 380.7875Q387.9375 380.7875 388.32812 380.4125Q388.71875 380.02188 388.71875 379.45938Q388.71875 378.88126 388.3125 378.49063Q387.90625 378.08438 387.3125 378.08438Q386.70312 378.08438 386.29688 378.475Q385.90625 378.86563 385.90625 379.39688ZM385.57812 383.36563Q385.57812 383.81876 385.78125 384.24063Q386.0 384.6625 386.42188 384.89688Q386.84375 385.13126 387.32812 385.13126Q388.07812 385.13126 388.5625 384.64688Q389.0625 384.1625 389.0625 383.4125Q389.0625 382.64688 388.5625 382.14688Q388.0625 381.64688 387.29688 381.64688Q386.54688 381.64688 386.0625 382.14688Q385.57812 382.63126 385.57812 383.36563Z" fill-rule="nonzero"/><path fill="#000000" d="M472.4973 385.85L471.45044 385.85L471.45044 379.13126Q471.0598 379.49063 470.4348 379.86563Q469.82544 380.225 469.34106 380.39688L469.34106 379.38126Q470.21606 378.95938 470.8723 378.38126Q471.5442 377.7875 471.82544 377.225L472.4973 377.225L472.4973 385.85ZM480.9973 379.36563L479.95044 379.44376Q479.8098 378.81876 479.5598 378.5375Q479.1223 378.08438 478.4973 378.08438Q477.9973 378.08438 477.6067 378.36563Q477.1223 378.74063 476.82544 379.44376Q476.5442 380.13126 476.52856 381.4125Q476.90356 380.83438 477.45044 380.55313Q478.01294 380.27188 478.6223 380.27188Q479.6692 380.27188 480.40356 381.05313Q481.15356 381.83438 481.15356 383.05313Q481.15356 383.86563 480.7942 384.56876Q480.45044 385.25626 479.84106 385.63126Q479.2317 385.99063 478.46606 385.99063Q477.13794 385.99063 476.3098 385.02188Q475.4817 384.05313 475.4817 381.83438Q475.4817 379.33438 476.40356 378.20938Q477.20044 377.225 478.5598 377.225Q479.57544 377.225 480.21606 377.80313Q480.8723 378.36563 480.9973 379.36563ZM476.70044 383.06876Q476.70044 383.61563 476.9192 384.11563Q477.15356 384.6 477.5598 384.86563Q477.9817 385.13126 478.45044 385.13126Q479.1067 385.13126 479.59106 384.6Q480.07544 384.05313 480.07544 383.13126Q480.07544 382.24063 479.59106 381.725Q479.1223 381.20938 478.40356 381.20938Q477.6848 381.20938 477.1848 381.725Q476.70044 382.24063 476.70044 383.06876Z" fill-rule="nonzero"/><path fill="#000000" d="M556.0571 383.58438L557.1196 383.44376Q557.2915 384.33438 557.729 384.74063Q558.1665 385.13126 558.7915 385.13126Q559.5415 385.13126 560.0571 384.61563Q560.57275 384.1 560.57275 383.33438Q560.57275 382.61563 560.0884 382.14688Q559.6196 381.6625 558.88525 381.6625Q558.5884 381.6625 558.13525 381.7875L558.26025 380.85Q558.3696 380.86563 558.4321 380.86563Q559.104 380.86563 559.63525 380.52188Q560.1821 380.1625 560.1821 379.42813Q560.1821 378.85 559.7915 378.475Q559.4009 378.08438 558.7759 378.08438Q558.1665 378.08438 557.7446 378.475Q557.3384 378.86563 557.229 379.63126L556.1665 379.44376Q556.354 378.39688 557.0415 377.81876Q557.729 377.225 558.7446 377.225Q559.44775 377.225 560.0415 377.5375Q560.63525 377.83438 560.94775 378.35Q561.26025 378.86563 561.26025 379.45938Q561.26025 380.00626 560.9634 380.475Q560.6665 380.92813 560.0884 381.19376Q560.8384 381.36563 561.26025 381.92813Q561.6821 382.475 561.6821 383.31876Q561.6821 384.44376 560.854 385.225Q560.0415 386.00626 558.7915 386.00626Q557.6665 386.00626 556.9165 385.33438Q556.1665 384.64688 556.0571 383.58438ZM568.604 384.83438L568.604 385.85L562.9165 385.85Q562.9165 385.475 563.0415 385.11563Q563.26025 384.5375 563.729 383.975Q564.2134 383.4125 565.1196 382.67813Q566.5259 381.52188 567.01025 380.85Q567.51025 380.17813 567.51025 379.58438Q567.51025 378.95938 567.0571 378.5375Q566.604 378.1 565.88525 378.1Q565.1196 378.1 564.6665 378.55313Q564.2134 379.00626 564.19775 379.81876L563.1196 379.70938Q563.229 378.49063 563.94775 377.86563Q564.6821 377.225 565.9165 377.225Q567.1509 377.225 567.8696 377.9125Q568.5884 378.6 568.5884 379.61563Q568.5884 380.13126 568.3696 380.63126Q568.1665 381.11563 567.6665 381.67813Q567.1821 382.225 566.0571 383.17813Q565.104 383.975 564.82275 384.27188Q564.5571 384.55313 564.38525 384.83438L568.604 384.83438Z" fill-rule="nonzero"/><path fill="#000000" d="M649.05444 379.36563L648.00757 379.44376Q647.86694 378.81876 647.61694 378.5375Q647.17944 378.08438 646.55444 378.08438Q646.05444 378.08438 645.6638 378.36563Q645.17944 378.74063 644.88257 379.44376Q644.6013 380.13126 644.5857 381.4125Q644.9607 380.83438 645.50757 380.55313Q646.07007 380.27188 646.67944 380.27188Q647.7263 380.27188 648.4607 381.05313Q649.2107 381.83438 649.2107 383.05313Q649.2107 383.86563 648.8513 384.56876Q648.50757 385.25626 647.8982 385.63126Q647.2888 385.99063 646.5232 385.99063Q645.19507 385.99063 644.36694 385.02188Q643.5388 384.05313 643.5388 381.83438Q643.5388 379.33438 644.4607 378.20938Q645.25757 377.225 646.61694 377.225Q647.63257 377.225 648.2732 377.80313Q648.92944 378.36563 649.05444 379.36563ZM644.75757 383.06876Q644.75757 383.61563 644.9763 384.11563Q645.2107 384.6 645.61694 384.86563Q646.0388 385.13126 646.50757 385.13126Q647.1638 385.13126 647.6482 384.6Q648.13257 384.05313 648.13257 383.13126Q648.13257 382.24063 647.6482 381.725Q647.17944 381.20938 646.4607 381.20938Q645.74194 381.20938 645.24194 381.725Q644.75757 382.24063 644.75757 383.06876ZM653.9607 385.85L653.9607 383.7875L650.24194 383.7875L650.24194 382.81876L654.1638 377.25626L655.0232 377.25626L655.0232 382.81876L656.17944 382.81876L656.17944 383.7875L655.0232 383.7875L655.0232 385.85L653.9607 385.85ZM653.9607 382.81876L653.9607 378.95938L651.2732 382.81876L653.9607 382.81876Z" fill-rule="nonzero"/><path fill="#757575" d="M42.71875 36.49375L45.53125 36.2125Q45.796875 37.634377 46.5625 38.30625Q47.34375 38.9625 48.65625 38.9625Q50.0625 38.9625 50.765625 38.36875Q51.46875 37.775 51.46875 36.99375Q51.46875 36.478127 51.171875 36.134377Q50.875 35.775 50.140625 35.509377Q49.625 35.321877 47.828125 34.884377Q45.5 34.30625 44.5625 33.4625Q43.234375 32.275 43.234375 30.587502Q43.234375 29.493752 43.859375 28.540627Q44.484375 27.587502 45.640625 27.087502Q46.8125 26.587502 48.46875 26.587502Q51.15625 26.587502 52.515625 27.775002Q53.890625 28.946877 53.953125 30.931252L51.0625 31.056252Q50.875 29.946877 50.265625 29.462502Q49.65625 28.978127 48.4375 28.978127Q47.171875 28.978127 46.46875 29.493752Q46.0 29.837502 46.0 30.384377Q46.0 30.900002 46.4375 31.259377Q46.984375 31.712502 49.09375 32.2125Q51.203125 32.7125 52.203125 33.24375Q53.21875 33.775 53.78125 34.696877Q54.359375 35.61875 54.359375 36.978127Q54.359375 38.2125 53.671875 39.290627Q53.0 40.353127 51.75 40.884377Q50.5 41.4 48.625 41.4Q45.921875 41.4 44.453125 40.15Q43.0 38.9 42.71875 36.49375ZM56.359375 30.775002L58.921875 30.775002L58.921875 32.30625Q59.421875 31.525002 60.265625 31.040627Q61.109375 30.540627 62.15625 30.540627Q63.953125 30.540627 65.203125 31.962502Q66.46875 33.36875 66.46875 35.9Q66.46875 38.509377 65.203125 39.946877Q63.9375 41.384377 62.125 41.384377Q61.265625 41.384377 60.5625 41.040627Q59.875 40.696877 59.109375 39.86875L59.109375 45.103127L56.359375 45.103127L56.359375 30.775002ZM59.078125 35.790627Q59.078125 37.540627 59.765625 38.384377Q60.453125 39.2125 61.453125 39.2125Q62.40625 39.2125 63.046875 38.446877Q63.6875 37.665627 63.6875 35.93125Q63.6875 34.290627 63.03125 33.509377Q62.375 32.7125 61.40625 32.7125Q60.40625 32.7125 59.734375 33.49375Q59.078125 34.259377 59.078125 35.790627ZM74.4375 37.853127L77.171875 38.30625Q76.65625 39.80625 75.515625 40.603127Q74.375 41.384377 72.671875 41.384377Q69.953125 41.384377 68.65625 39.61875Q67.640625 38.196877 67.640625 36.040627Q67.640625 33.4625 68.984375 32.009377Q70.328125 30.540627 72.390625 30.540627Q74.703125 30.540627 76.03125 32.071877Q77.375 33.603127 77.328125 36.759377L70.453125 36.759377Q70.484375 37.978127 71.109375 38.665627Q71.75 39.3375 72.6875 39.3375Q73.34375 39.3375 73.78125 38.99375Q74.21875 38.634377 74.4375 37.853127ZM74.59375 35.071877Q74.5625 33.884377 73.96875 33.275Q73.390625 32.65 72.5625 32.65Q71.65625 32.65 71.078125 33.290627Q70.484375 33.946877 70.5 35.071877L74.59375 35.071877ZM85.4375 37.853127L88.171875 38.30625Q87.65625 39.80625 86.515625 40.603127Q85.375 41.384377 83.671875 41.384377Q80.953125 41.384377 79.65625 39.61875Q78.640625 38.196877 78.640625 36.040627Q78.640625 33.4625 79.984375 32.009377Q81.328125 30.540627 83.390625 30.540627Q85.703125 30.540627 87.03125 32.071877Q88.375 33.603127 88.328125 36.759377L81.453125 36.759377Q81.484375 37.978127 82.109375 38.665627Q82.75 39.3375 83.6875 39.3375Q84.34375 39.3375 84.78125 38.99375Q85.21875 38.634377 85.4375 37.853127ZM85.59375 35.071877Q85.5625 33.884377 84.96875 33.275Q84.390625 32.65 83.5625 32.65Q82.65625 32.65 82.078125 33.290627Q81.484375 33.946877 81.5 35.071877L85.59375 35.071877ZM99.953125 41.15L97.40625 41.15L97.40625 39.61875Q96.765625 40.509377 95.890625 40.946877Q95.03125 41.384377 94.15625 41.384377Q92.375 41.384377 91.09375 39.946877Q89.828125 38.509377 89.828125 35.93125Q89.828125 33.290627 91.0625 31.915627Q92.296875 30.540627 94.203125 30.540627Q95.9375 30.540627 97.203125 31.993752L97.203125 26.837502L99.953125 26.837502L99.953125 41.15ZM92.625 35.74375Q92.625 37.4 93.078125 38.134377Q93.75 39.2125 94.9375 39.2125Q95.890625 39.2125 96.546875 38.415627Q97.21875 37.603127 97.21875 36.009377Q97.21875 34.2125 96.5625 33.43125Q95.921875 32.65 94.921875 32.65Q93.9375 32.65 93.28125 33.43125Q92.625 34.196877 92.625 35.74375ZM108.4375 26.837502L111.328125 26.837502L111.328125 34.5875Q111.328125 36.43125 111.4375 36.978127Q111.625 37.853127 112.3125 38.384377Q113.015625 38.915627 114.234375 38.915627Q115.453125 38.915627 116.078125 38.415627Q116.703125 37.915627 116.828125 37.18125Q116.96875 36.446877 116.96875 34.759377L116.96875 26.837502L119.859375 26.837502L119.859375 34.353127Q119.859375 36.93125 119.625 37.99375Q119.390625 39.05625 118.75 39.790627Q118.125 40.525 117.0625 40.9625Q116.015625 41.4 114.3125 41.4Q112.265625 41.4 111.203125 40.93125Q110.140625 40.446877 109.53125 39.696877Q108.921875 38.93125 108.71875 38.103127Q108.4375 36.86875 108.4375 34.4625L108.4375 26.837502ZM122.359375 30.775002L124.921875 30.775002L124.921875 32.30625Q125.421875 31.525002 126.265625 31.040627Q127.109375 30.540627 128.15625 30.540627Q129.95312 30.540627 131.20312 31.962502Q132.46875 33.36875 132.46875 35.9Q132.46875 38.509377 131.20312 39.946877Q129.9375 41.384377 128.125 41.384377Q127.265625 41.384377 126.5625 41.040627Q125.875 40.696877 125.109375 39.86875L125.109375 45.103127L122.359375 45.103127L122.359375 30.775002ZM125.078125 35.790627Q125.078125 37.540627 125.765625 38.384377Q126.453125 39.2125 127.453125 39.2125Q128.40625 39.2125 129.04688 38.446877Q129.6875 37.665627 129.6875 35.93125Q129.6875 34.290627 129.03125 33.509377Q128.375 32.7125 127.40625 32.7125Q126.40625 32.7125 125.734375 33.49375Q125.078125 34.259377 125.078125 35.790627ZM139.79688 35.821877Q139.79688 34.446877 140.46875 33.165627Q141.15625 31.884377 142.39062 31.212502Q143.625 30.540627 145.14062 30.540627Q147.5 30.540627 149.0 32.071877Q150.5 33.603127 150.5 35.93125Q150.5 38.290627 148.98438 39.8375Q147.46875 41.384377 145.15625 41.384377Q143.73438 41.384377 142.4375 40.74375Q141.15625 40.0875 140.46875 38.853127Q139.79688 37.603127 139.79688 35.821877ZM142.60938 35.9625Q142.60938 37.509377 143.34375 38.3375Q144.07812 39.15 145.15625 39.15Q146.23438 39.15 146.95312 38.3375Q147.6875 37.509377 147.6875 35.946877Q147.6875 34.415627 146.95312 33.603127Q146.23438 32.775 145.15625 32.775Q144.07812 32.775 143.34375 33.603127Q142.60938 34.415627 142.60938 35.9625ZM151.23438 30.775002L152.76562 30.775002L152.76562 29.993752Q152.76562 28.681252 153.03125 28.040627Q153.3125 27.400002 154.0625 26.993752Q154.8125 26.587502 155.95312 26.587502Q157.125 26.587502 158.25 26.946877L157.875 28.853127Q157.21875 28.696877 156.60938 28.696877Q156.01562 28.696877 155.75 28.978127Q155.5 29.259377 155.5 30.040627L155.5 30.775002L157.54688 30.775002L157.54688 32.93125L155.5 32.93125L155.5 41.15L152.76562 41.15L152.76562 32.93125L151.23438 32.93125L151.23438 30.775002ZM170.1875 30.775002L170.1875 32.9625L168.3125 32.9625L168.3125 37.15Q168.3125 38.415627 168.35938 38.634377Q168.42188 38.8375 168.60938 38.978127Q168.8125 39.103127 169.07812 39.103127Q169.45312 39.103127 170.1875 38.8375L170.42188 40.978127Q169.45312 41.384377 168.25 41.384377Q167.5 41.384377 166.90625 41.134377Q166.3125 40.884377 166.03125 40.49375Q165.76562 40.0875 165.65625 39.415627Q165.5625 38.946877 165.5625 37.49375L165.5625 32.9625L164.29688 32.9625L164.29688 30.775002L165.5625 30.775002L165.5625 28.712502L168.3125 27.118752L168.3125 30.775002L170.1875 30.775002ZM175.17188 26.837502L175.17188 32.103127Q176.5 30.540627 178.34375 30.540627Q179.29688 30.540627 180.04688 30.900002Q180.8125 31.243752 181.20312 31.790627Q181.59375 32.3375 181.73438 33.009377Q181.875 33.665627 181.875 35.071877L181.875 41.15L179.125 41.15L179.125 35.665627Q179.125 34.040627 178.96875 33.603127Q178.8125 33.165627 178.40625 32.915627Q178.01562 32.65 177.42188 32.65Q176.75 32.65 176.20312 32.978127Q175.67188 33.30625 175.42188 33.978127Q175.17188 34.65 175.17188 35.946877L175.17188 41.15L172.42188 41.15L172.42188 26.837502L175.17188 26.837502ZM190.4375 37.853127L193.17188 38.30625Q192.65625 39.80625 191.51562 40.603127Q190.375 41.384377 188.67188 41.384377Q185.95312 41.384377 184.65625 39.61875Q183.64062 38.196877 183.64062 36.040627Q183.64062 33.4625 184.98438 32.009377Q186.32812 30.540627 188.39062 30.540627Q190.70312 30.540627 192.03125 32.071877Q193.375 33.603127 193.32812 36.759377L186.45312 36.759377Q186.48438 37.978127 187.10938 38.665627Q187.75 39.3375 188.6875 39.3375Q189.34375 39.3375 189.78125 38.99375Q190.21875 38.634377 190.4375 37.853127ZM190.59375 35.071877Q190.5625 33.884377 189.96875 33.275Q189.39062 32.65 188.5625 32.65Q187.65625 32.65 187.07812 33.290627Q186.48438 33.946877 186.5 35.071877L190.59375 35.071877ZM201.53125 41.15L201.53125 26.946877L204.42188 26.946877L204.42188 38.74375L211.60938 38.74375L211.60938 41.15L201.53125 41.15ZM226.35938 41.15L223.21875 41.15L221.96875 37.9L216.25 37.9L215.0625 41.15L212.0 41.15L217.57812 26.837502L220.64062 26.837502L226.35938 41.15ZM221.04688 35.478127L219.07812 30.165627L217.14062 35.478127L221.04688 35.478127ZM226.42188 41.15L226.42188 26.837502L230.75 26.837502L233.34375 36.603127L235.90625 26.837502L240.25 26.837502L240.25 41.15L237.5625 41.15L237.5625 29.884377L234.71875 41.15L231.9375 41.15L229.10938 29.884377L229.10938 41.15L226.42188 41.15ZM243.42188 41.15L243.42188 26.837502L247.75 26.837502L250.34375 36.603127L252.90625 26.837502L257.25 26.837502L257.25 41.15L254.5625 41.15L254.5625 29.884377L251.71875 41.15L248.9375 41.15L246.10938 29.884377L246.10938 41.15L243.42188 41.15ZM260.45312 41.15L260.45312 26.837502L265.09375 26.837502Q267.73438 26.837502 268.53125 27.040627Q269.76562 27.368752 270.59375 28.446877Q271.42188 29.525002 271.42188 31.243752Q271.42188 32.55625 270.9375 33.4625Q270.46875 34.353127 269.71875 34.86875Q268.98438 35.384377 268.23438 35.540627Q267.1875 35.74375 265.23438 35.74375L263.34375 35.74375L263.34375 41.15L260.45312 41.15ZM263.34375 29.259377L263.34375 33.321877L264.92188 33.321877Q266.64062 33.321877 267.21875 33.103127Q267.79688 32.86875 268.10938 32.4Q268.4375 31.915627 268.4375 31.275002Q268.4375 30.493752 267.98438 29.993752Q267.53125 29.478127 266.82812 29.353127Q266.3125 29.259377 264.75 29.259377L263.34375 29.259377ZM272.71875 36.49375L275.53125 36.2125Q275.79688 37.634377 276.5625 38.30625Q277.34375 38.9625 278.65625 38.9625Q280.0625 38.9625 280.76562 38.36875Q281.46875 37.775 281.46875 36.99375Q281.46875 36.478127 281.17188 36.134377Q280.875 35.775 280.14062 35.509377Q279.625 35.321877 277.82812 34.884377Q275.5 34.30625 274.5625 33.4625Q273.23438 32.275 273.23438 30.587502Q273.23438 29.493752 273.85938 28.540627Q274.48438 27.587502 275.64062 27.087502Q276.8125 26.587502 278.46875 26.587502Q281.15625 26.587502 282.51562 27.775002Q283.89062 28.946877 283.95312 30.931252L281.0625 31.056252Q280.875 29.946877 280.26562 29.462502Q279.65625 28.978127 278.4375 28.978127Q277.17188 28.978127 276.46875 29.493752Q276.0 29.837502 276.0 30.384377Q276.0 30.900002 276.4375 31.259377Q276.98438 31.712502 279.09375 32.2125Q281.20312 32.7125 282.20312 33.24375Q283.21875 33.775 283.78125 34.696877Q284.35938 35.61875 284.35938 36.978127Q284.35938 38.2125 283.67188 39.290627Q283.0 40.353127 281.75 40.884377Q280.5 41.4 278.625 41.4Q275.92188 41.4 274.45312 40.15Q273.0 38.9 272.71875 36.49375ZM291.71875 36.49375L294.53125 36.2125Q294.79688 37.634377 295.5625 38.30625Q296.34375 38.9625 297.65625 38.9625Q299.0625 38.9625 299.76562 38.36875Q300.46875 37.775 300.46875 36.99375Q300.46875 36.478127 300.17188 36.134377Q299.875 35.775 299.14062 35.509377Q298.625 35.321877 296.82812 34.884377Q294.5 34.30625 293.5625 33.4625Q292.23438 32.275 292.23438 30.587502Q292.23438 29.493752 292.85938 28.540627Q293.48438 27.587502 294.64062 27.087502Q295.8125 26.587502 297.46875 26.587502Q300.15625 26.587502 301.51562 27.775002Q302.89062 28.946877 302.95312 30.931252L300.0625 31.056252Q299.875 29.946877 299.26562 29.462502Q298.65625 28.978127 297.4375 28.978127Q296.17188 28.978127 295.46875 29.493752Q295.0 29.837502 295.0 30.384377Q295.0 30.900002 295.4375 31.259377Q295.98438 31.712502 298.09375 32.2125Q300.20312 32.7125 301.20312 33.24375Q302.21875 33.775 302.78125 34.696877Q303.35938 35.61875 303.35938 36.978127Q303.35938 38.2125 302.67188 39.290627Q302.0 40.353127 300.75 40.884377Q299.5 41.4 297.625 41.4Q294.92188 41.4 293.45312 40.15Q292.0 38.9 291.71875 36.49375ZM304.79688 35.821877Q304.79688 34.446877 305.46875 33.165627Q306.15625 31.884377 307.39062 31.212502Q308.625 30.540627 310.14062 30.540627Q312.5 30.540627 314.0 32.071877Q315.5 33.603127 315.5 35.93125Q315.5 38.290627 313.98438 39.8375Q312.46875 41.384377 310.15625 41.384377Q308.73438 41.384377 307.4375 40.74375Q306.15625 40.0875 305.46875 38.853127Q304.79688 37.603127 304.79688 35.821877ZM307.60938 35.9625Q307.60938 37.509377 308.34375 38.3375Q309.07812 39.15 310.15625 39.15Q311.23438 39.15 311.95312 38.3375Q312.6875 37.509377 312.6875 35.946877Q312.6875 34.415627 311.95312 33.603127Q311.23438 32.775 310.15625 32.775Q309.07812 32.775 308.34375 33.603127Q307.60938 34.415627 307.60938 35.9625ZM316.23438 30.775002L317.76562 30.775002L317.76562 29.993752Q317.76562 28.681252 318.03125 28.040627Q318.3125 27.400002 319.0625 26.993752Q319.8125 26.587502 320.95312 26.587502Q322.125 26.587502 323.25 26.946877L322.875 28.853127Q322.21875 28.696877 321.60938 28.696877Q321.01562 28.696877 320.75 28.978127Q320.5 29.259377 320.5 30.040627L320.5 30.775002L322.54688 30.775002L322.54688 32.93125L320.5 32.93125L320.5 41.15L317.76562 41.15L317.76562 32.93125L316.23438 32.93125L316.23438 30.775002ZM329.1875 30.775002L329.1875 32.9625L327.3125 32.9625L327.3125 37.15Q327.3125 38.415627 327.35938 38.634377Q327.42188 38.8375 327.60938 38.978127Q327.8125 39.103127 328.07812 39.103127Q328.45312 39.103127 329.1875 38.8375L329.42188 40.978127Q328.45312 41.384377 327.25 41.384377Q326.5 41.384377 325.90625 41.134377Q325.3125 40.884377 325.03125 40.49375Q324.76562 40.0875 324.65625 39.415627Q324.5625 38.946877 324.5625 37.49375L324.5625 32.9625L323.29688 32.9625L323.29688 30.775002L324.5625 30.775002L324.5625 28.712502L327.3125 27.118752L327.3125 30.775002L329.1875 30.775002ZM333.375 41.15L330.09375 30.775002L332.75 30.775002L334.70312 37.571877L336.48438 30.775002L339.125 30.775002L340.85938 37.571877L342.84375 30.775002L345.54688 30.775002L342.21875 41.15L339.57812 41.15L337.79688 34.478127L336.03125 41.15L333.375 41.15ZM348.48438 33.946877L346.0 33.49375Q346.42188 31.993752 347.4375 31.275002Q348.46875 30.540627 350.48438 30.540627Q352.32812 30.540627 353.21875 30.978127Q354.125 31.415627 354.48438 32.0875Q354.85938 32.74375 354.85938 34.540627L354.82812 37.74375Q354.82812 39.103127 354.95312 39.759377Q355.09375 40.4 355.45312 41.15L352.73438 41.15Q352.625 40.86875 352.46875 40.3375Q352.40625 40.0875 352.375 40.009377Q351.67188 40.696877 350.85938 41.040627Q350.0625 41.384377 349.15625 41.384377Q347.5625 41.384377 346.64062 40.525Q345.71875 39.65 345.71875 38.321877Q345.71875 37.43125 346.125 36.74375Q346.54688 36.05625 347.29688 35.696877Q348.0625 35.321877 349.5 35.05625Q351.42188 34.696877 352.15625 34.384377L352.15625 34.103127Q352.15625 33.321877 351.76562 32.99375Q351.375 32.65 350.29688 32.65Q349.5625 32.65 349.14062 32.93125Q348.73438 33.2125 348.48438 33.946877ZM352.15625 36.165627Q351.625 36.3375 350.48438 36.5875Q349.34375 36.8375 349.0 37.071877Q348.45312 37.446877 348.45312 38.040627Q348.45312 38.603127 348.875 39.025Q349.3125 39.446877 349.98438 39.446877Q350.71875 39.446877 351.39062 38.9625Q351.89062 38.5875 352.04688 38.05625Q352.15625 37.696877 352.15625 36.7125L352.15625 36.165627ZM360.0625 41.15L357.3125 41.15L357.3125 30.775002L359.875 30.775002L359.875 32.259377Q360.51562 31.212502 361.03125 30.884377Q361.5625 30.540627 362.23438 30.540627Q363.17188 30.540627 364.03125 31.056252L363.1875 33.446877Q362.5 33.009377 361.90625 33.009377Q361.32812 33.009377 360.92188 33.321877Q360.51562 33.634377 360.28125 34.478127Q360.0625 35.30625 360.0625 37.946877L360.0625 41.15ZM371.4375 37.853127L374.17188 38.30625Q373.65625 39.80625 372.51562 40.603127Q371.375 41.384377 369.67188 41.384377Q366.95312 41.384377 365.65625 39.61875Q364.64062 38.196877 364.64062 36.040627Q364.64062 33.4625 365.98438 32.009377Q367.32812 30.540627 369.39062 30.540627Q371.70312 30.540627 373.03125 32.071877Q374.375 33.603127 374.32812 36.759377L367.45312 36.759377Q367.48438 37.978127 368.10938 38.665627Q368.75 39.3375 369.6875 39.3375Q370.34375 39.3375 370.78125 38.99375Q371.21875 38.634377 371.4375 37.853127ZM371.59375 35.071877Q371.5625 33.884377 370.96875 33.275Q370.39062 32.65 369.5625 32.65Q368.65625 32.65 368.07812 33.290627Q367.48438 33.946877 367.5 35.071877L371.59375 35.071877ZM386.98438 45.353127L385.10938 45.353127Q383.60938 43.103127 382.82812 40.68125Q382.04688 38.24375 382.04688 35.9625Q382.04688 33.134377 383.01562 30.618752Q383.85938 28.431252 385.14062 26.587502L387.01562 26.587502Q385.67188 29.540627 385.17188 31.618752Q384.67188 33.696877 384.67188 36.025Q384.67188 37.61875 384.96875 39.30625Q385.26562 40.978127 385.78125 42.49375Q386.125 43.49375 386.98438 45.353127ZM392.67188 41.15L392.67188 29.259377L388.4375 29.259377L388.4375 26.837502L399.8125 26.837502L399.8125 29.259377L395.5625 29.259377L395.5625 41.15L392.67188 41.15ZM402.4375 29.368752L402.4375 26.837502L405.1875 26.837502L405.1875 29.368752L402.4375 29.368752ZM402.4375 41.15L402.4375 30.775002L405.1875 30.775002L405.1875 41.15L402.4375 41.15ZM407.23438 30.775002L409.76562 30.775002L409.76562 32.196877Q411.125 30.540627 413.0 30.540627Q413.98438 30.540627 414.71875 30.962502Q415.45312 31.368752 415.92188 32.196877Q416.60938 31.368752 417.39062 30.962502Q418.1875 30.540627 419.09375 30.540627Q420.23438 30.540627 421.01562 31.009377Q421.8125 31.478127 422.20312 32.36875Q422.48438 33.040627 422.48438 34.525L422.48438 41.15L419.73438 41.15L419.73438 35.228127Q419.73438 33.68125 419.45312 33.228127Q419.07812 32.65 418.28125 32.65Q417.70312 32.65 417.1875 33.009377Q416.6875 33.353127 416.46875 34.025Q416.25 34.696877 416.25 36.165627L416.25 41.15L413.5 41.15L413.5 35.4625Q413.5 33.946877 413.34375 33.509377Q413.20312 33.071877 412.89062 32.86875Q412.59375 32.65 412.0625 32.65Q411.4375 32.65 410.92188 32.99375Q410.42188 33.321877 410.1875 33.978127Q409.96875 34.61875 409.96875 36.103127L409.96875 41.15L407.23438 41.15L407.23438 30.775002ZM430.4375 37.853127L433.17188 38.30625Q432.65625 39.80625 431.51562 40.603127Q430.375 41.384377 428.67188 41.384377Q425.95312 41.384377 424.65625 39.61875Q423.64062 38.196877 423.64062 36.040627Q423.64062 33.4625 424.98438 32.009377Q426.32812 30.540627 428.39062 30.540627Q430.70312 30.540627 432.03125 32.071877Q433.375 33.603127 433.32812 36.759377L426.45312 36.759377Q426.48438 37.978127 427.10938 38.665627Q427.75 39.3375 428.6875 39.3375Q429.34375 39.3375 429.78125 38.99375Q430.21875 38.634377 430.4375 37.853127ZM430.59375 35.071877Q430.5625 33.884377 429.96875 33.275Q429.39062 32.65 428.5625 32.65Q427.65625 32.65 427.07812 33.290627Q426.48438 33.946877 426.5 35.071877L430.59375 35.071877ZM445.98438 45.353127L444.10938 45.353127Q442.60938 43.103127 441.82812 40.68125Q441.04688 38.24375 441.04688 35.9625Q441.04688 33.134377 442.01562 30.618752Q442.85938 28.431252 444.14062 26.587502L446.01562 26.587502Q444.67188 29.540627 444.17188 31.618752Q443.67188 33.696877 443.67188 36.025Q443.67188 37.61875 443.96875 39.30625Q444.26562 40.978127 444.78125 42.49375Q445.125 43.49375 445.98438 45.353127ZM447.46875 38.196877L450.21875 37.775Q450.40625 38.571877 450.9375 38.99375Q451.46875 39.4 452.4375 39.4Q453.5 39.4 454.04688 39.009377Q454.40625 38.74375 454.40625 38.275Q454.40625 37.9625 454.20312 37.759377Q454.0 37.571877 453.29688 37.4Q449.96875 36.665627 449.07812 36.05625Q447.84375 35.228127 447.84375 33.728127Q447.84375 32.384377 448.90625 31.462502Q449.98438 30.540627 452.21875 30.540627Q454.34375 30.540627 455.375 31.243752Q456.42188 31.931252 456.8125 33.290627L454.21875 33.759377Q454.04688 33.165627 453.57812 32.8375Q453.125 32.509377 452.26562 32.509377Q451.1875 32.509377 450.71875 32.821877Q450.40625 33.040627 450.40625 33.36875Q450.40625 33.665627 450.67188 33.86875Q451.04688 34.15 453.23438 34.65Q455.42188 35.15 456.29688 35.86875Q457.15625 36.603127 457.15625 37.9Q457.15625 39.3375 455.96875 40.36875Q454.78125 41.384377 452.4375 41.384377Q450.32812 41.384377 449.07812 40.525Q447.84375 39.665627 447.46875 38.196877ZM458.67188 45.353127Q459.48438 43.61875 459.8125 42.68125Q460.15625 41.759377 460.4375 40.55625Q460.71875 39.3375 460.84375 38.259377Q460.98438 37.165627 460.98438 36.025Q460.98438 33.696877 460.48438 31.618752Q460.0 29.540627 458.65625 26.587502L460.51562 26.587502Q462.0 28.681252 462.8125 31.040627Q463.625 33.4 463.625 35.821877Q463.625 37.853127 462.98438 40.196877Q462.25 42.80625 460.5625 45.353127L458.67188 45.353127ZM475.28125 41.15L471.10938 30.775002L473.98438 30.775002L475.9375 36.071877L476.51562 37.8375Q476.73438 37.165627 476.79688 36.946877Q476.92188 36.509377 477.07812 36.071877L479.0625 30.775002L481.875 30.775002L477.76562 41.15L475.28125 41.15ZM482.46875 38.196877L485.21875 37.775Q485.40625 38.571877 485.9375 38.99375Q486.46875 39.4 487.4375 39.4Q488.5 39.4 489.04688 39.009377Q489.40625 38.74375 489.40625 38.275Q489.40625 37.9625 489.20312 37.759377Q489.0 37.571877 488.29688 37.4Q484.96875 36.665627 484.07812 36.05625Q482.84375 35.228127 482.84375 33.728127Q482.84375 32.384377 483.90625 31.462502Q484.98438 30.540627 487.21875 30.540627Q489.34375 30.540627 490.375 31.243752Q491.42188 31.931252 491.8125 33.290627L489.21875 33.759377Q489.04688 33.165627 488.57812 32.8375Q488.125 32.509377 487.26562 32.509377Q486.1875 32.509377 485.71875 32.821877Q485.40625 33.040627 485.40625 33.36875Q485.40625 33.665627 485.67188 33.86875Q486.04688 34.15 488.23438 34.65Q490.42188 35.15 491.29688 35.86875Q492.15625 36.603127 492.15625 37.9Q492.15625 39.3375 490.96875 40.36875Q489.78125 41.384377 487.4375 41.384377Q485.32812 41.384377 484.07812 40.525Q482.84375 39.665627 482.46875 38.196877ZM494.4375 41.15L494.4375 38.4L497.1875 38.4L497.1875 41.15L494.4375 41.15ZM506.48438 41.15L506.48438 26.837502L509.29688 26.837502L515.15625 36.4L515.15625 26.837502L517.84375 26.837502L517.84375 41.15L514.9375 41.15L509.17188 31.806252L509.17188 41.15L506.48438 41.15ZM527.2656 41.15L527.2656 39.603127Q526.7031 40.43125 525.7656 40.915627Q524.84375 41.384377 523.8281 41.384377Q522.78125 41.384377 521.9531 40.93125Q521.125 40.4625 520.75 39.634377Q520.375 38.80625 520.375 37.3375L520.375 30.775002L523.125 30.775002L523.125 35.540627Q523.125 37.728127 523.2656 38.228127Q523.4219 38.7125 523.8125 39.009377Q524.21875 39.290627 524.84375 39.290627Q525.5469 39.290627 526.09375 38.915627Q526.65625 38.525 526.8594 37.9625Q527.0625 37.384377 527.0625 35.15L527.0625 30.775002L529.8125 30.775002L529.8125 41.15L527.2656 41.15ZM532.2344 30.775002L534.7656 30.775002L534.7656 32.196877Q536.125 30.540627 538.0 30.540627Q538.9844 30.540627 539.71875 30.962502Q540.4531 31.368752 540.9219 32.196877Q541.6094 31.368752 542.3906 30.962502Q543.1875 30.540627 544.09375 30.540627Q545.2344 30.540627 546.0156 31.009377Q546.8125 31.478127 547.2031 32.36875Q547.4844 33.040627 547.4844 34.525L547.4844 41.15L544.7344 41.15L544.7344 35.228127Q544.7344 33.68125 544.4531 33.228127Q544.0781 32.65 543.28125 32.65Q542.7031 32.65 542.1875 33.009377Q541.6875 33.353127 541.46875 34.025Q541.25 34.696877 541.25 36.165627L541.25 41.15L538.5 41.15L538.5 35.4625Q538.5 33.946877 538.34375 33.509377Q538.2031 33.071877 537.8906 32.86875Q537.59375 32.65 537.0625 32.65Q536.4375 32.65 535.9219 32.99375Q535.4219 33.321877 535.1875 33.978127Q534.96875 34.61875 534.96875 36.103127L534.96875 41.15L532.2344 41.15L532.2344 30.775002ZM549.3125 41.15L549.3125 26.837502L552.0625 26.837502L552.0625 31.993752Q553.3281 30.540627 555.0781 30.540627Q556.96875 30.540627 558.2031 31.915627Q559.4531 33.290627 559.4531 35.853127Q559.4531 38.509377 558.1875 39.946877Q556.9219 41.384377 555.1094 41.384377Q554.21875 41.384377 553.3594 40.946877Q552.5 40.49375 551.875 39.61875L551.875 41.15L549.3125 41.15ZM552.0469 35.74375Q552.0469 37.353127 552.5469 38.11875Q553.2656 39.2125 554.4531 39.2125Q555.3594 39.2125 556.0 38.446877Q556.6406 37.665627 556.6406 35.99375Q556.6406 34.2125 555.9844 33.43125Q555.34375 32.65 554.34375 32.65Q553.3594 32.65 552.7031 33.415627Q552.0469 34.18125 552.0469 35.74375ZM567.4375 37.853127L570.1719 38.30625Q569.65625 39.80625 568.5156 40.603127Q567.375 41.384377 565.6719 41.384377Q562.9531 41.384377 561.65625 39.61875Q560.6406 38.196877 560.6406 36.040627Q560.6406 33.4625 561.9844 32.009377Q563.3281 30.540627 565.3906 30.540627Q567.7031 30.540627 569.03125 32.071877Q570.375 33.603127 570.3281 36.759377L563.4531 36.759377Q563.4844 37.978127 564.1094 38.665627Q564.75 39.3375 565.6875 39.3375Q566.34375 39.3375 566.78125 38.99375Q567.21875 38.634377 567.4375 37.853127ZM567.59375 35.071877Q567.5625 33.884377 566.96875 33.275Q566.3906 32.65 565.5625 32.65Q564.65625 32.65 564.0781 33.290627Q563.4844 33.946877 563.5 35.071877L567.59375 35.071877ZM575.0625 41.15L572.3125 41.15L572.3125 30.775002L574.875 30.775002L574.875 32.259377Q575.5156 31.212502 576.03125 30.884377Q576.5625 30.540627 577.2344 30.540627Q578.1719 30.540627 579.03125 31.056252L578.1875 33.446877Q577.5 33.009377 576.90625 33.009377Q576.3281 33.009377 575.9219 33.321877Q575.5156 33.634377 575.28125 34.478127Q575.0625 35.30625 575.0625 37.946877L575.0625 41.15ZM585.7969 35.821877Q585.7969 34.446877 586.46875 33.165627Q587.15625 31.884377 588.3906 31.212502Q589.625 30.540627 591.1406 30.540627Q593.5 30.540627 595.0 32.071877Q596.5 33.603127 596.5 35.93125Q596.5 38.290627 594.9844 39.8375Q593.46875 41.384377 591.15625 41.384377Q589.7344 41.384377 588.4375 40.74375Q587.15625 40.0875 586.46875 38.853127Q585.7969 37.603127 585.7969 35.821877ZM588.6094 35.9625Q588.6094 37.509377 589.34375 38.3375Q590.0781 39.15 591.15625 39.15Q592.2344 39.15 592.9531 38.3375Q593.6875 37.509377 593.6875 35.946877Q593.6875 34.415627 592.9531 33.603127Q592.2344 32.775 591.15625 32.775Q590.0781 32.775 589.34375 33.603127Q588.6094 34.415627 588.6094 35.9625ZM597.2344 30.775002L598.7656 30.775002L598.7656 29.993752Q598.7656 28.681252 599.03125 28.040627Q599.3125 27.400002 600.0625 26.993752Q600.8125 26.587502 601.9531 26.587502Q603.125 26.587502 604.25 26.946877L603.875 28.853127Q603.21875 28.696877 602.6094 28.696877Q602.0156 28.696877 601.75 28.978127Q601.5 29.259377 601.5 30.040627L601.5 30.775002L603.5469 30.775002L603.5469 32.93125L601.5 32.93125L601.5 41.15L598.7656 41.15L598.7656 32.93125L597.2344 32.93125L597.2344 30.775002ZM614.6719 41.15L614.6719 29.259377L610.4375 29.259377L610.4375 26.837502L621.8125 26.837502L621.8125 29.259377L617.5625 29.259377L617.5625 41.15L614.6719 41.15ZM626.4844 33.946877L624.0 33.49375Q624.4219 31.993752 625.4375 31.275002Q626.46875 30.540627 628.4844 30.540627Q630.3281 30.540627 631.21875 30.978127Q632.125 31.415627 632.4844 32.0875Q632.8594 32.74375 632.8594 34.540627L632.8281 37.74375Q632.8281 39.103127 632.9531 39.759377Q633.09375 40.4 633.4531 41.15L630.7344 41.15Q630.625 40.86875 630.46875 40.3375Q630.40625 40.0875 630.375 40.009377Q629.6719 40.696877 628.8594 41.040627Q628.0625 41.384377 627.15625 41.384377Q625.5625 41.384377 624.6406 40.525Q623.71875 39.65 623.71875 38.321877Q623.71875 37.43125 624.125 36.74375Q624.5469 36.05625 625.2969 35.696877Q626.0625 35.321877 627.5 35.05625Q629.4219 34.696877 630.15625 34.384377L630.15625 34.103127Q630.15625 33.321877 629.7656 32.99375Q629.375 32.65 628.2969 32.65Q627.5625 32.65 627.1406 32.93125Q626.7344 33.2125 626.4844 33.946877ZM630.15625 36.165627Q629.625 36.3375 628.4844 36.5875Q627.34375 36.8375 627.0 37.071877Q626.4531 37.446877 626.4531 38.040627Q626.4531 38.603127 626.875 39.025Q627.3125 39.446877 627.9844 39.446877Q628.71875 39.446877 629.3906 38.9625Q629.8906 38.5875 630.0469 38.05625Q630.15625 37.696877 630.15625 36.7125L630.15625 36.165627ZM634.46875 38.196877L637.21875 37.775Q637.40625 38.571877 637.9375 38.99375Q638.46875 39.4 639.4375 39.4Q640.5 39.4 641.0469 39.009377Q641.40625 38.74375 641.40625 38.275Q641.40625 37.9625 641.2031 37.759377Q641.0 37.571877 640.2969 37.4Q636.96875 36.665627 636.0781 36.05625Q634.84375 35.228127 634.84375 33.728127Q634.84375 32.384377 635.90625 31.462502Q636.9844 30.540627 639.21875 30.540627Q641.34375 30.540627 642.375 31.243752Q643.4219 31.931252 643.8125 33.290627L641.21875 33.759377Q641.0469 33.165627 640.5781 32.8375Q640.125 32.509377 639.2656 32.509377Q638.1875 32.509377 637.71875 32.821877Q637.40625 33.040627 637.40625 33.36875Q637.40625 33.665627 637.6719 33.86875Q638.0469 34.15 640.2344 34.65Q642.4219 35.15 643.2969 35.86875Q644.15625 36.603127 644.15625 37.9Q644.15625 39.3375 642.96875 40.36875Q641.78125 41.384377 639.4375 41.384377Q637.3281 41.384377 636.0781 40.525Q634.84375 39.665627 634.46875 38.196877ZM646.34375 41.15L646.34375 26.837502L649.0781 26.837502L649.0781 34.43125L652.2969 30.775002L655.6719 30.775002L652.125 34.571877L655.9219 41.15L652.96875 41.15L650.3594 36.49375L649.0781 37.821877L649.0781 41.15L646.34375 41.15ZM656.46875 38.196877L659.21875 37.775Q659.40625 38.571877 659.9375 38.99375Q660.46875 39.4 661.4375 39.4Q662.5 39.4 663.0469 39.009377Q663.40625 38.74375 663.40625 38.275Q663.40625 37.9625 663.2031 37.759377Q663.0 37.571877 662.2969 37.4Q658.96875 36.665627 658.0781 36.05625Q656.84375 35.228127 656.84375 33.728127Q656.84375 32.384377 657.90625 31.462502Q658.9844 30.540627 661.21875 30.540627Q663.34375 30.540627 664.375 31.243752Q665.4219 31.931252 665.8125 33.290627L663.21875 33.759377Q663.0469 33.165627 662.5781 32.8375Q662.125 32.509377 661.2656 32.509377Q660.1875 32.509377 659.71875 32.821877Q659.40625 33.040627 659.40625 33.36875Q659.40625 33.665627 659.6719 33.86875Q660.0469 34.15 662.2344 34.65Q664.4219 35.15 665.2969 35.86875Q666.15625 36.603127 666.15625 37.9Q666.15625 39.3375 664.96875 40.36875Q663.78125 41.384377 661.4375 41.384377Q659.3281 41.384377 658.0781 40.525Q656.84375 39.665627 656.46875 38.196877ZM667.6719 45.353127Q668.4844 43.61875 668.8125 42.68125Q669.15625 41.759377 669.4375 40.55625Q669.71875 39.3375 669.84375 38.259377Q669.9844 37.165627 669.9844 36.025Q669.9844 33.696877 669.4844 31.618752Q669.0 29.540627 667.65625 26.587502L669.5156 26.587502Q671.0 28.681252 671.8125 31.040627Q672.625 33.4 672.625 35.821877Q672.625 37.853127 671.9844 40.196877Q671.25 42.80625 669.5625 45.353127L667.6719 45.353127Z" fill-rule="nonzero"/></svg>